<svg xmlns="http://www.w3.org/2000/svg" xmlns:xlink="http://www.w3.org/1999/xlink" width="32" height="32" viewBox="0 0 32 32">
    <defs>
        <path id="a" d="M6.047 6c4.784.569 7.861 1.965 9.23 4.188.057.09.057 5.041 0 14.852-1.668-1.76-4.745-2.794-9.23-3.1V6zM25.95 21.94c-4.484.306-7.56 1.34-9.229 3.1-.055-9.762-.055-14.69 0-14.78C18.092 8.037 21.184 6.617 26 6l-.05 15.94zm1.444-12.697L29 9.847V26c-4.852-.738-8.515-.802-10.988-.191 1.43-1.365 4.558-2.17 9.383-2.413V9.243zM4.498 23.396c4.897.244 8.06 1.048 9.49 2.412-2.473-.61-6.136-.546-10.988.192V9.847l1.605-.604-.107 14.153z"/>
    </defs>
    <g fill="none" fill-rule="evenodd">
        <path fill="#FFF" d="M-968-35H472v2589H-968z"/>
        <g>
            <mask id="b" fill="#fff">
                <use xlink:href="#a"/>
            </mask>
            <use fill="#000" xlink:href="#a"/>
            <g fill="#5498A9" mask="url(#b)">
                <path d="M0 0h32v32H0z"/>
            </g>
        </g>
    </g>
</svg>
