<svg xmlns="http://www.w3.org/2000/svg" xmlns:xlink="http://www.w3.org/1999/xlink" width="48" height="48" viewBox="0 0 48 48">
    <defs>
        <path id="a" d="M24 20.318c-2.84 0-5.143 2.199-5.143 4.91 0 2.71 2.302 4.908 5.143 4.908 2.84 0 5.143-2.197 5.143-4.909 0-2.71-2.303-4.909-5.143-4.909zm14.4-4.756h-4.32c-.594 0-1.234-.431-1.422-.96l-1.116-3.142c-.189-.528-.828-.96-1.422-.96H17.88c-.594 0-1.234.432-1.422.96l-1.116 3.142c-.189.528-.828.96-1.422.96H9.6c-1.98 0-3.6 1.52-3.6 3.376v15.187C6 35.981 7.62 37.5 9.6 37.5h28.8c1.98 0 3.6-1.519 3.6-3.375V18.937c0-1.856-1.62-3.375-3.6-3.375zM24 33.819c-4.97 0-9-3.846-9-8.59 0-4.745 4.03-8.592 9-8.592s9 3.847 9 8.591c0 4.745-4.03 8.591-9 8.591zm12.857-12.273c-.71 0-1.286-.549-1.286-1.227 0-.677.576-1.227 1.286-1.227.71 0 1.286.55 1.286 1.227 0 .678-.576 1.227-1.286 1.227z"/>
    </defs>
    <g fill="none" fill-rule="evenodd">
        <path fill="#FFF" d="M-320-700h1440V324H-320z"/>
        <g>
            <mask id="b" fill="#fff">
                <use xlink:href="#a"/>
            </mask>
            <use fill="#030104" fill-rule="nonzero" xlink:href="#a"/>
            <g fill="#757575" mask="url(#b)">
                <path d="M0 0h48v48H0z"/>
            </g>
        </g>
    </g>
</svg>
