<svg xmlns="http://www.w3.org/2000/svg" xmlns:xlink="http://www.w3.org/1999/xlink" width="32" height="32" viewBox="0 0 32 32">
    <defs>
        <path id="a" d="M16 13.545c-1.894 0-3.429 1.466-3.429 3.273 0 1.808 1.535 3.273 3.429 3.273 1.893 0 3.429-1.465 3.429-3.273 0-1.807-1.536-3.273-3.429-3.273zm9.6-3.17h-2.88c-.396 0-.823-.288-.948-.64l-.744-2.095c-.126-.352-.552-.64-.948-.64h-8.16c-.396 0-.823.288-.948.64l-.744 2.095c-.126.352-.552.64-.948.64H6.4c-1.32 0-2.4 1.012-2.4 2.25V22.75C4 23.988 5.08 25 6.4 25h19.2c1.32 0 2.4-1.012 2.4-2.25V12.625c0-1.238-1.08-2.25-2.4-2.25zM16 22.545c-3.314 0-6-2.564-6-5.727 0-3.163 2.686-5.727 6-5.727 3.313 0 6 2.564 6 5.727 0 3.163-2.687 5.727-6 5.727zm8.571-8.181c-.473 0-.857-.366-.857-.819 0-.451.384-.818.857-.818.474 0 .858.367.858.818 0 .453-.384.819-.858.819z"/>
    </defs>
    <g fill="none" fill-rule="evenodd">
        <mask id="b" fill="#fff">
            <use xlink:href="#a"/>
        </mask>
        <use fill="#030104" fill-rule="nonzero" xlink:href="#a"/>
        <g fill="#000" mask="url(#b)">
            <path d="M0 0h32v32H0z"/>
        </g>
    </g>
</svg>
