<svg xmlns="http://www.w3.org/2000/svg" xmlns:xlink="http://www.w3.org/1999/xlink" width="48" height="48" viewBox="0 0 48 48">
    <defs>
        <rect id="a" width="327" height="88" x="24" y="12" rx="10"/>
        <mask id="b" width="327" height="88" x="0" y="0" fill="#fff">
            <use xlink:href="#a"/>
        </mask>
        <path id="c" d="M39.268 8.806c3.643 3.744 3.643 9.834 0 13.577l-1.496 1.68a10.08 10.08 0 0 0-4.073-.86c-2.52 0-4.802.965-6.602 2.505l-8.747-8.987 7.704-7.915a9.18 9.18 0 0 1 13.214 0zm-13.56 18.348c-1.481 1.79-2.406 4.03-2.406 6.498 0 1.453.311 2.835.866 4.093l-1.583 1.544c-3.773 3.66-9.982 3.591-13.756-.07a9.21 9.21 0 0 1 0-13.282l7.809-7.587 9.07 8.804zM33.75 42a8.25 8.25 0 1 1 0-16.5 8.25 8.25 0 0 1 0 16.5zm-.977-8.945H29.25v1.752h3.523V38.4H34.7v-3.593h3.55v-1.752H34.7V29.4h-1.927v3.655z"/>
    </defs>
    <g fill="none" fill-rule="evenodd" transform="translate(-48 -32)">
        <use fill-rule="nonzero" stroke="#979797" stroke-dasharray="5" stroke-width="2" mask="url(#b)" xlink:href="#a"/>
        <g transform="translate(48 32)">
            <mask id="d" fill="#fff">
                <use xlink:href="#c"/>
            </mask>
            <use fill="#000" xlink:href="#c"/>
            <g fill="#757575" mask="url(#d)">
                <path d="M0 0h48v48H0z"/>
            </g>
        </g>
    </g>
</svg>
