<svg xmlns="http://www.w3.org/2000/svg" xmlns:xlink="http://www.w3.org/1999/xlink" width="48" height="48" viewBox="0 0 48 48">
    <defs>
        <path id="a" d="M22.908 32.43a3 3 0 0 0 2.91.134l10.422-5.179v8.458c0 .959-1.056 1.656-2.112 1.656H7.778c-.049.002-.098.001-.147-.001-.953-.049-1.682-.79-1.628-1.655v-3.226l7.456-4.197a3 3 0 0 1 3.046.061l6.403 3.95zm1.842-6.93a2.25 2.25 0 1 1 0-4.5 2.25 2.25 0 0 1 0 4.5zm16.812-11.7c.324.34.478.781.429 1.224l-2.238 17.141c.004.445-.224.866-.618 1.14-.19.169-.62.253-.62.338V18.74c-.075-1.924-1.829-3.461-3.998-3.505H11.76l.428-3.293c.093-.426.345-.813.715-1.097a2.403 2.403 0 0 1 1.428-.338l25.946 2.66c.512.034.982.266 1.285.633zm-7.434 3.129c1.128.043 2.04.872 2.112 1.922v6.556l-10.424 5.07a3 3 0 0 1-2.896-.149l-6.388-3.97a3 3 0 0 0-3.091-.045L6 30.637V18.851c0-.984.72-1.922 1.776-1.922h26.352zM24.75 27a3.75 3.75 0 1 0 0-7.5 3.75 3.75 0 0 0 0 7.5z"/>
    </defs>
    <g fill="none" fill-rule="evenodd">
        <path fill="#FFF" d="M-392-700h1440V324H-392z"/>
        <g>
            <mask id="b" fill="#fff">
                <use xlink:href="#a"/>
            </mask>
            <use fill="#000" xlink:href="#a"/>
            <g fill="#757575" mask="url(#b)">
                <path d="M0 0h48v48H0z"/>
            </g>
        </g>
    </g>
</svg>
