<svg xmlns="http://www.w3.org/2000/svg" xmlns:xlink="http://www.w3.org/1999/xlink" width="80" height="80" viewBox="0 0 80 80">
    <defs>
        <linearGradient id="a" x1="50%" x2="50%" y1="0%" y2="97.609%">
            <stop offset="0%" stop-color="#5498A9"/>
            <stop offset="100%" stop-color="#263551"/>
        </linearGradient>
        <path id="c" d="M10.627 26.407c5.96.454 10.226-9.842 17.224-10.356 7.715-.567 6.786 11.733 12.133 9.864 2.296-.802 6.204-1.306 7.393 6.198 4.036-7.504 4.472-20.12-6.688-28.804-6.701-5.216.328-3.135 5.767.677C54.03 9.292 57.482 15.532 58.72 23.462c2.56-2.555 5.197-2.852 7.176-.706 2.495 2.705 3.48 2.592 4.5.71 1.167-2.156-.724-5.628.296-4.816.808.644 2.158 7.265-1.84 8.046-1.76.344-2.858-2.054-4.264-2.237-2.984-.389-4.043 4.215-7.106 9.439-2.406 4.104-5.284 5.883-3.274.593 3.842-10.11-.076-23.688-9.163-29.474 7.459 6.806 10.071 19.306 5.055 29.524-4.889 9.96-11.286 9.07-8.493 4.91 6.364-9.484.591-12.821-1.995-11.632-9.11 4.188-8.434-6.778-14.304-7.337-5.804-.552-9.986 10.233-15.925 10.233-2.207 0-6.107-4.019-3.918-12.884.326-1.32 1.1-3.194.904-1.324-1.633 8.063 1.558 9.694 4.258 9.9z"/>
        <filter id="b" width="118%" height="128.4%" x="-9%" y="-14.2%" filterUnits="objectBoundingBox">
            <feOffset in="SourceAlpha" result="shadowOffsetOuter1"/>
            <feGaussianBlur in="shadowOffsetOuter1" result="shadowBlurOuter1" stdDeviation="2"/>
            <feColorMatrix in="shadowBlurOuter1" values="0 0 0 0 0.31776148 0 0 0 0 0.31776148 0 0 0 0 0.31776148 0 0 0 0.5 0"/>
        </filter>
    </defs>
    <g fill="none" fill-rule="evenodd">
        <path fill="url(#a)" d="M27.618 39.884a18.535 18.535 0 0 1-12.73-5.037c-2.846-2.672-1.29 5.95 10.598 11.124 7.01 3.05-8.674 6.244-17.704-4.154-11.218-12.916-6.51-26.053-3.663-31.114 4.96-8.814 15.583-9.649 13.166-7.35-3.199 3.043-2.275 4.237-.628 3.034A18.521 18.521 0 0 1 27.618 2.82c10.26 0 18.576 8.297 18.576 18.532s-8.317 18.533-18.576 18.533zm0-7.413c6.156 0 11.146-4.979 11.146-11.12 0-6.14-4.99-11.119-11.146-11.119-6.155 0-11.145 4.978-11.145 11.12 0 6.14 4.99 11.119 11.145 11.119z" transform="translate(4 15)"/>
        <g transform="translate(4 15)">
            <use fill="#000" filter="url(#b)" xlink:href="#c"/>
            <use fill="#F5A623" xlink:href="#c"/>
        </g>
    </g>
</svg>
