<svg xmlns="http://www.w3.org/2000/svg" xmlns:xlink="http://www.w3.org/1999/xlink" width="24" height="24" viewBox="0 0 24 24">
    <defs>
        <path id="a" d="M21.234 10.714l-3.797 2.572c0-.78-.349-1.471-.89-1.943A4.496 4.496 0 0 0 18.704 7.5c0-2.485-1.983-4.5-4.43-4.5-2.446 0-4.43 2.015-4.43 4.5 0 1.26.514 2.397 1.337 3.214H8.858a3.86 3.86 0 0 0 .986-2.571c0-2.13-1.7-3.857-3.797-3.857-2.097 0-3.797 1.726-3.797 3.857 0 1.162.517 2.192 1.318 2.9a2.567 2.567 0 0 0-1.318 2.243v5.143C2.25 19.849 3.383 21 4.781 21h10.125c1.398 0 2.531-1.151 2.531-2.571L21.235 21c.7 0 1.266-.575 1.266-1.286V12c0-.71-.566-1.286-1.266-1.286zm-15.187 0c-1.398 0-2.531-1.151-2.531-2.571 0-1.42 1.133-2.572 2.53-2.572 1.399 0 2.532 1.152 2.532 2.572 0 1.42-1.133 2.571-2.531 2.571zm8.226.007c-1.751 0-3.17-1.442-3.17-3.221 0-1.78 1.42-3.221 3.17-3.221 1.751 0 3.171 1.442 3.171 3.221 0 1.78-1.419 3.221-3.17 3.221z"/>
    </defs>
    <g fill="none" fill-rule="evenodd">
        <path fill="#FFF" d="M-965-657H475V905H-965z"/>
        <g>
            <mask id="b" fill="#fff">
                <use xlink:href="#a"/>
            </mask>
            <use fill="#000" fill-rule="nonzero" xlink:href="#a"/>
            <g fill="#5498A9" mask="url(#b)">
                <path d="M0 0h24v24H0z"/>
            </g>
        </g>
        <text fill="#FFF" font-family="Roboto-Bold, Roboto" font-size="14" font-weight="bold">
            <tspan x="28" y="17">Button</tspan>
        </text>
        <text fill="#212121" font-family="Roboto-Bold, Roboto" font-size="14" font-weight="bold">
            <tspan x="28" y="17">Watch Trailer</tspan>
        </text>
    </g>
</svg>
